# xmcd CD database file
#
# Track frame offsets:
#	150
#	14200
#	28457
#	41222
#	57002
#	73365
#	87610
#	105505
#	117540
#	133430
#	147725
#	163997
#
# Disc length: 2424 seconds
#
# Revision: 16
# Processed by: cddbd v1.5.2PL0 Copyright (c) Steve Scherf et al.
# Submitted via: CDex 1.50
#
DISCID=ce09760c
DTITLE=Emmylou Harris - Best Of Emmylou Harris - Profile
DYEAR=1978
DGENRE=Country
TTITLE0=One Of These Days [1975]
TTITLE1=Sweet Dreams [Live, 1975]
TTITLE2=To Daddy [1977]
TTITLE3=(You Never Can Tell) C'est La Vie [1976]
TTITLE4=Making Believe [1976]
TTITLE5=Easy From Now On [1976]
TTITLE6=Together Again [1975]
TTITLE7=If I Could Only Win Your Love [1974]
TTITLE8=Too Far Gone [1974]
TTITLE9=Two More Bottles Of Wine [1976]
TTITLE10=Boulder To Birmingham [1974]
TTITLE11=Hello Stranger [1976]
EXTD=Track dates provided. YEAR: 1978
EXTT0=
EXTT1=
EXTT2=
EXTT3=
EXTT4=
EXTT5=
EXTT6=
EXTT7=
EXTT8=
EXTT9=
EXTT10=
EXTT11=
PLAYORDER=
